<?xml version="1.0" standalone="no"?><!DOCTYPE svg PUBLIC "-//W3C//DTD SVG 1.1//EN" "http://www.w3.org/Graphics/SVG/1.1/DTD/svg11.dtd"><svg t="1515659565937" class="icon" style="" viewBox="0 0 1024 1024" version="1.1" xmlns="http://www.w3.org/2000/svg" p-id="1004" xmlns:xlink="http://www.w3.org/1999/xlink" width="48" height="48"><defs><style type="text/css"></style></defs><path d="M976.396819 928.836617H49.409316c-26.278503 0-47.581692 21.303188-47.581691 47.581691s21.303188 47.581692 47.581691 47.581692h926.987503c26.278503 0 47.581692-21.303188 47.581692-47.581692s-21.303188-47.581692-47.581692-47.581691zM257.030981 832.201719c34.755572 0 62.930261-28.17469 62.930261-62.930261V305.736263c0-34.755572-28.17469-62.930261-62.930261-62.930261s-62.930261 28.17469-62.930261 62.930261v463.534172c0 34.756595 28.17469 62.931285 62.930261 62.931284zM512.673335 828.030723c36.169781 0 65.491597-29.321816 65.491597-65.491597v-573.051471c0-36.169781-29.321816-65.491597-65.491597-65.491596-36.169781 0-65.491597 29.321816-65.491596 65.491596v573.051471c0 36.169781 29.321816 65.491597 65.491596 65.491597zM766.453273 828.030723c35.040051 0 63.444984-28.404933 63.444984-63.444984v-699.94144c0-35.040051-28.404933-63.444984-63.444984-63.444984s-63.444984 28.404933-63.444985 63.444984v699.94144c0 35.040051 28.405957 63.444984 63.444985 63.444984z" fill="#ffffff" p-id="1005"></path></svg>