<?xml version="1.0" standalone="no"?><!DOCTYPE svg PUBLIC "-//W3C//DTD SVG 1.1//EN" "http://www.w3.org/Graphics/SVG/1.1/DTD/svg11.dtd"><svg t="1520388558689" class="icon" style="" viewBox="0 0 1024 1024" version="1.1" xmlns="http://www.w3.org/2000/svg" p-id="6167" xmlns:xlink="http://www.w3.org/1999/xlink" width="200" height="200"><defs><style type="text/css"></style></defs><path d="M511.705799 105.900935c-224.283136 0-406.100088 181.816952-406.100088 406.100088 0 224.282113 181.816952 406.100088 406.100088 406.100088 224.282113 0 406.100088-181.817975 406.100088-406.100088C917.804864 287.717887 735.987912 105.900935 511.705799 105.900935zM185.777659 540.776394c-16.018835 0-29.006637-12.987802-29.006637-29.007661 0-16.020882 12.987802-29.008684 29.006637-29.008684 16.020882 0 29.007661 12.987802 29.007661 29.008684C214.786343 527.788591 201.798541 540.776394 185.777659 540.776394zM511.704776 157.066245c16.020882 0 29.008684 12.987802 29.008684 29.008684 0 16.019859-12.986779 29.007661-29.008684 29.007661-16.018835 0-29.006637-12.987802-29.006637-29.007661C482.698139 170.053024 495.685941 157.066245 511.704776 157.066245zM511.704776 869.673146c-16.018835 0-29.006637-12.987802-29.006637-29.007661 0-16.020882 12.987802-29.008684 29.006637-29.008684 16.020882 0 29.008684 12.986779 29.008684 29.008684C540.712437 856.685343 527.725658 869.673146 511.704776 869.673146zM750.079862 337.311399 593.600995 483.557204c12.411681 31.403221 5.92392 68.547189-19.47454 93.946672-34.121122 34.121122-89.443102 34.121122-123.564223 0-25.495674-25.494651-31.937386-62.824861-19.333324-94.304829l-107.706047-97.472985c-13.419637-13.419637-13.418614-35.176151-0.001023-48.593741 13.419637-13.419637 35.176151-13.419637 48.594765 0l107.707071 97.472985c20.947078-8.385994 44.482097-8.341992 65.398476 0.13917l156.260903-146.028864c13.418614-13.418614 35.177174-13.418614 48.595788 0C763.498476 302.135248 763.498476 323.891761 750.079862 337.311399zM837.631894 541.007661c-16.018835 0-29.006637-12.986779-29.006637-29.006637 0-16.020882 12.986779-29.008684 29.006637-29.008684 16.020882 0 29.008684 12.987802 29.008684 29.008684C866.639554 528.019859 853.652775 541.007661 837.631894 541.007661z" p-id="6168" fill="#13227a"></path></svg>